<mxfile host="Electron" modified="2024-07-03T13:18:02.922Z" agent="Mozilla/5.0 (Windows NT 10.0; Win64; x64) AppleWebKit/537.36 (KHTML, like Gecko) draw.io/24.6.4 Chrome/124.0.6367.207 Electron/30.0.6 Safari/537.36" etag="4Rx41Be1nN5P6CIKW7fb" version="24.6.4" type="device">
  <diagram name="Page-1" id="U3ByOUZtbBBebyJQK0hH">
    <mxGraphModel dx="2765" dy="4008" grid="1" gridSize="10" guides="1" tooltips="1" connect="1" arrows="1" fold="1" page="1" pageScale="1" pageWidth="850" pageHeight="1100" math="0" shadow="0">
      <root>
        <mxCell id="0" />
        <mxCell id="1" parent="0" />
        <mxCell id="M2tGAzniRJHASpzbKPjf-74" value="" style="rounded=0;whiteSpace=wrap;html=1;fillColor=#d5e8d4;strokeColor=#82b366;" vertex="1" parent="1">
          <mxGeometry x="770" y="75" width="1330" height="725" as="geometry" />
        </mxCell>
        <mxCell id="M2tGAzniRJHASpzbKPjf-75" value="&lt;font style=&quot;font-size: 20px;&quot;&gt;&lt;b&gt;Second Part : arr[3,5] = {5, 6, 7}&lt;/b&gt;&lt;/font&gt;" style="text;html=1;align=center;verticalAlign=middle;whiteSpace=wrap;rounded=0;" vertex="1" parent="1">
          <mxGeometry x="770" y="75" width="330" height="30" as="geometry" />
        </mxCell>
        <mxCell id="M2tGAzniRJHASpzbKPjf-71" value="" style="rounded=0;whiteSpace=wrap;html=1;fillColor=#dae8fc;strokeColor=#6c8ebf;" vertex="1" parent="1">
          <mxGeometry x="480" y="-860" width="1610" height="920" as="geometry" />
        </mxCell>
        <mxCell id="M2tGAzniRJHASpzbKPjf-48" value="" style="rounded=1;whiteSpace=wrap;html=1;" vertex="1" parent="1">
          <mxGeometry x="1250" y="200" width="250" height="190" as="geometry" />
        </mxCell>
        <mxCell id="M2tGAzniRJHASpzbKPjf-49" value="&lt;h1 style=&quot;margin-top: 0px;&quot;&gt;sort(arr, 3, 4){&lt;/h1&gt;&lt;p style=&quot;line-height: 50%;&quot;&gt;if( 3&amp;lt; 4){&lt;/p&gt;&lt;p style=&quot;line-height: 50%;&quot;&gt;&lt;span style=&quot;white-space: pre;&quot;&gt;&#x9;&lt;/span&gt;int m = 3+ ( 4 - 3 ) / 2 = 3&lt;br&gt;&lt;/p&gt;&lt;p style=&quot;line-height: 50%;&quot;&gt;&lt;span style=&quot;white-space: pre;&quot;&gt;&#x9;&lt;/span&gt;sort(arr, 3, 3);&lt;br&gt;&lt;/p&gt;&lt;p style=&quot;line-height: 50%;&quot;&gt;&lt;span style=&quot;white-space: pre;&quot;&gt;&#x9;&lt;/span&gt;sort(arr, 3+1, 4);&lt;br&gt;&lt;/p&gt;&lt;p style=&quot;line-height: 50%;&quot;&gt;&lt;span style=&quot;white-space: pre;&quot;&gt;&#x9;&lt;/span&gt;merge(arr, 3, 3, 4);&lt;br&gt;&lt;/p&gt;&lt;p style=&quot;line-height: 50%;&quot;&gt;&lt;span style=&quot;white-space: pre;&quot;&gt;&#x9;&lt;/span&gt;}&lt;/p&gt;&lt;p style=&quot;line-height: 50%;&quot;&gt;}&lt;/p&gt;" style="text;html=1;whiteSpace=wrap;overflow=hidden;rounded=0;" vertex="1" parent="1">
          <mxGeometry x="1275" y="210" width="250" height="180" as="geometry" />
        </mxCell>
        <mxCell id="M2tGAzniRJHASpzbKPjf-13" value="" style="rounded=1;whiteSpace=wrap;html=1;" vertex="1" parent="1">
          <mxGeometry x="820" y="-400" width="250" height="190" as="geometry" />
        </mxCell>
        <mxCell id="M2tGAzniRJHASpzbKPjf-14" value="&lt;h1 style=&quot;margin-top: 0px;&quot;&gt;sort(arr, 0, 2){&lt;/h1&gt;&lt;p style=&quot;line-height: 50%;&quot;&gt;if( 0 &amp;lt; 2){&lt;/p&gt;&lt;p style=&quot;line-height: 50%;&quot;&gt;&lt;span style=&quot;white-space: pre;&quot;&gt;&#x9;&lt;/span&gt;int m = 0 + ( 2 - 0 ) / 2 = 1&lt;br&gt;&lt;/p&gt;&lt;p style=&quot;line-height: 50%;&quot;&gt;&lt;span style=&quot;white-space: pre;&quot;&gt;&#x9;&lt;/span&gt;sort(arr, 0, 1);&lt;br&gt;&lt;/p&gt;&lt;p style=&quot;line-height: 50%;&quot;&gt;&lt;span style=&quot;white-space: pre;&quot;&gt;&#x9;&lt;/span&gt;sort(arr, 1+1, 2);&lt;br&gt;&lt;/p&gt;&lt;p style=&quot;line-height: 50%;&quot;&gt;&lt;span style=&quot;white-space: pre;&quot;&gt;&#x9;&lt;/span&gt;merge(arr, 0, 1, 2);&lt;br&gt;&lt;/p&gt;&lt;p style=&quot;line-height: 50%;&quot;&gt;&lt;span style=&quot;white-space: pre;&quot;&gt;&#x9;&lt;/span&gt;}&lt;/p&gt;&lt;p style=&quot;line-height: 50%;&quot;&gt;}&lt;/p&gt;" style="text;html=1;whiteSpace=wrap;overflow=hidden;rounded=0;" vertex="1" parent="1">
          <mxGeometry x="845" y="-390" width="250" height="180" as="geometry" />
        </mxCell>
        <mxCell id="M2tGAzniRJHASpzbKPjf-11" value="" style="rounded=1;whiteSpace=wrap;html=1;" vertex="1" parent="1">
          <mxGeometry x="370" y="330" width="250" height="190" as="geometry" />
        </mxCell>
        <mxCell id="M2tGAzniRJHASpzbKPjf-12" value="&lt;h1 style=&quot;margin-top: 0px;&quot;&gt;sort(arr, 0, 5){&lt;/h1&gt;&lt;p style=&quot;line-height: 50%;&quot;&gt;if( 0 &amp;lt; 5){&lt;/p&gt;&lt;p style=&quot;line-height: 50%;&quot;&gt;&lt;span style=&quot;white-space: pre;&quot;&gt;&#x9;&lt;/span&gt;int m = 0 + ( 5 - 0 ) / 2 = 2&lt;br&gt;&lt;/p&gt;&lt;p style=&quot;line-height: 50%;&quot;&gt;&lt;span style=&quot;white-space: pre;&quot;&gt;&#x9;&lt;/span&gt;sort(arr, 0, 2);&lt;br&gt;&lt;/p&gt;&lt;p style=&quot;line-height: 50%;&quot;&gt;&lt;span style=&quot;white-space: pre;&quot;&gt;&#x9;&lt;/span&gt;sort(arr, 2+1, 5);&lt;br&gt;&lt;/p&gt;&lt;p style=&quot;line-height: 50%;&quot;&gt;&lt;span style=&quot;white-space: pre;&quot;&gt;&#x9;&lt;/span&gt;merge(arr, 0, 2, 5);&lt;br&gt;&lt;/p&gt;&lt;p style=&quot;line-height: 50%;&quot;&gt;&lt;span style=&quot;white-space: pre;&quot;&gt;&#x9;&lt;/span&gt;}&lt;/p&gt;&lt;p style=&quot;line-height: 50%;&quot;&gt;}&lt;/p&gt;" style="text;html=1;whiteSpace=wrap;overflow=hidden;rounded=0;" vertex="1" parent="1">
          <mxGeometry x="395" y="340" width="250" height="180" as="geometry" />
        </mxCell>
        <mxCell id="M2tGAzniRJHASpzbKPjf-1" value="sort(arr, 0, arr.length-1)" style="rounded=0;whiteSpace=wrap;html=1;" vertex="1" parent="1">
          <mxGeometry x="60" y="-1340" width="180" height="60" as="geometry" />
        </mxCell>
        <mxCell id="M2tGAzniRJHASpzbKPjf-2" value="&lt;b&gt;&lt;font style=&quot;font-size: 23px;&quot;&gt;{12, 11, 13, 5, 6, 7}&lt;/font&gt;&lt;/b&gt;" style="text;html=1;align=center;verticalAlign=middle;whiteSpace=wrap;rounded=0;" vertex="1" parent="1">
          <mxGeometry x="70" y="-1420" width="230" height="30" as="geometry" />
        </mxCell>
        <mxCell id="M2tGAzniRJHASpzbKPjf-3" value="&lt;b&gt;&lt;font style=&quot;font-size: 23px;&quot;&gt;Merge Sort&lt;/font&gt;&lt;/b&gt;" style="text;html=1;align=center;verticalAlign=middle;whiteSpace=wrap;rounded=0;" vertex="1" parent="1">
          <mxGeometry x="70" y="-1480" width="230" height="30" as="geometry" />
        </mxCell>
        <mxCell id="M2tGAzniRJHASpzbKPjf-4" value="" style="endArrow=classic;html=1;rounded=0;exitX=1;exitY=0.5;exitDx=0;exitDy=0;" edge="1" parent="1" source="M2tGAzniRJHASpzbKPjf-1">
          <mxGeometry width="50" height="50" relative="1" as="geometry">
            <mxPoint x="430" y="-1310" as="sourcePoint" />
            <mxPoint x="380" y="-1310" as="targetPoint" />
          </mxGeometry>
        </mxCell>
        <mxCell id="M2tGAzniRJHASpzbKPjf-6" value="" style="rounded=1;whiteSpace=wrap;html=1;" vertex="1" parent="1">
          <mxGeometry x="390" y="-1360" width="250" height="190" as="geometry" />
        </mxCell>
        <mxCell id="M2tGAzniRJHASpzbKPjf-8" value="&lt;h1 style=&quot;margin-top: 0px;&quot;&gt;sort(arr, l, r){&lt;/h1&gt;&lt;p style=&quot;line-height: 50%;&quot;&gt;if( 0 &amp;lt; 5){&lt;/p&gt;&lt;p style=&quot;line-height: 50%;&quot;&gt;&lt;span style=&quot;white-space: pre;&quot;&gt;&#x9;&lt;/span&gt;int m = l + ( r - l ) / 2&lt;br&gt;&lt;/p&gt;&lt;p style=&quot;line-height: 50%;&quot;&gt;&lt;span style=&quot;white-space: pre;&quot;&gt;&#x9;&lt;/span&gt;sort(arr, l, m);&lt;br&gt;&lt;/p&gt;&lt;p style=&quot;line-height: 50%;&quot;&gt;&lt;span style=&quot;white-space: pre;&quot;&gt;&#x9;&lt;/span&gt;sort(arr, m+1, r);&lt;br&gt;&lt;/p&gt;&lt;p style=&quot;line-height: 50%;&quot;&gt;&lt;span style=&quot;white-space: pre;&quot;&gt;&#x9;&lt;/span&gt;merge(arr, l, m, r);&lt;br&gt;&lt;/p&gt;&lt;p style=&quot;line-height: 50%;&quot;&gt;&lt;span style=&quot;white-space: pre;&quot;&gt;&#x9;&lt;/span&gt;}&lt;/p&gt;&lt;p style=&quot;line-height: 50%;&quot;&gt;}&lt;/p&gt;" style="text;html=1;whiteSpace=wrap;overflow=hidden;rounded=0;" vertex="1" parent="1">
          <mxGeometry x="415" y="-1350" width="250" height="180" as="geometry" />
        </mxCell>
        <mxCell id="M2tGAzniRJHASpzbKPjf-9" value="sort(arr, 0, 5)" style="rounded=0;whiteSpace=wrap;html=1;" vertex="1" parent="1">
          <mxGeometry x="40" y="350" width="180" height="60" as="geometry" />
        </mxCell>
        <mxCell id="M2tGAzniRJHASpzbKPjf-10" value="" style="endArrow=classic;html=1;rounded=0;exitX=1;exitY=0.5;exitDx=0;exitDy=0;" edge="1" parent="1" source="M2tGAzniRJHASpzbKPjf-9">
          <mxGeometry width="50" height="50" relative="1" as="geometry">
            <mxPoint x="410" y="380" as="sourcePoint" />
            <mxPoint x="360" y="380" as="targetPoint" />
          </mxGeometry>
        </mxCell>
        <mxCell id="M2tGAzniRJHASpzbKPjf-16" value="" style="rounded=1;whiteSpace=wrap;html=1;" vertex="1" parent="1">
          <mxGeometry x="1250" y="-695" width="250" height="190" as="geometry" />
        </mxCell>
        <mxCell id="M2tGAzniRJHASpzbKPjf-15" value="1" style="endArrow=classic;html=1;rounded=0;edgeStyle=orthogonalEdgeStyle;entryX=0;entryY=0.5;entryDx=0;entryDy=0;fillColor=#dae8fc;strokeColor=#6c8ebf;strokeWidth=2;fontSize=16;" edge="1" parent="1" target="M2tGAzniRJHASpzbKPjf-13">
          <mxGeometry width="50" height="50" relative="1" as="geometry">
            <mxPoint x="510" y="431" as="sourcePoint" />
            <mxPoint x="788.42" y="330" as="targetPoint" />
          </mxGeometry>
        </mxCell>
        <mxCell id="M2tGAzniRJHASpzbKPjf-17" value="&lt;h1 style=&quot;margin-top: 0px;&quot;&gt;sort(arr, 0, 1){&lt;/h1&gt;&lt;p style=&quot;line-height: 50%;&quot;&gt;if( 0 &amp;lt; 1){&lt;/p&gt;&lt;p style=&quot;line-height: 50%;&quot;&gt;&lt;span style=&quot;white-space: pre;&quot;&gt;&#x9;&lt;/span&gt;int m = 0 + ( 1 - 0 ) / 2 = 0&lt;br&gt;&lt;/p&gt;&lt;p style=&quot;line-height: 50%;&quot;&gt;&lt;span style=&quot;white-space: pre;&quot;&gt;&#x9;&lt;/span&gt;sort(arr, 0, 0);&lt;br&gt;&lt;/p&gt;&lt;p style=&quot;line-height: 50%;&quot;&gt;&lt;span style=&quot;white-space: pre;&quot;&gt;&#x9;&lt;/span&gt;sort(arr, 0+1, 1);&lt;br&gt;&lt;/p&gt;&lt;p style=&quot;line-height: 50%;&quot;&gt;&lt;span style=&quot;white-space: pre;&quot;&gt;&#x9;&lt;/span&gt;merge(arr, 0, 0, 1);&lt;br&gt;&lt;/p&gt;&lt;p style=&quot;line-height: 50%;&quot;&gt;&lt;span style=&quot;white-space: pre;&quot;&gt;&#x9;&lt;/span&gt;}&lt;/p&gt;&lt;p style=&quot;line-height: 50%;&quot;&gt;}&lt;/p&gt;" style="text;html=1;whiteSpace=wrap;overflow=hidden;rounded=0;" vertex="1" parent="1">
          <mxGeometry x="1275" y="-685" width="250" height="180" as="geometry" />
        </mxCell>
        <mxCell id="M2tGAzniRJHASpzbKPjf-18" value="2" style="endArrow=classic;html=1;rounded=0;edgeStyle=orthogonalEdgeStyle;entryX=0.002;entryY=0.455;entryDx=0;entryDy=0;fillColor=#dae8fc;strokeColor=#6c8ebf;strokeWidth=2;entryPerimeter=0;fontSize=16;" edge="1" parent="1" target="M2tGAzniRJHASpzbKPjf-16">
          <mxGeometry width="50" height="50" relative="1" as="geometry">
            <mxPoint x="980" y="-300" as="sourcePoint" />
            <mxPoint x="1390" y="83.52000000000001" as="targetPoint" />
            <Array as="points">
              <mxPoint x="1150" y="-300" />
              <mxPoint x="1150" y="-608" />
            </Array>
          </mxGeometry>
        </mxCell>
        <mxCell id="M2tGAzniRJHASpzbKPjf-19" value="" style="rounded=1;whiteSpace=wrap;html=1;" vertex="1" parent="1">
          <mxGeometry x="1730" y="-850" width="200" height="130" as="geometry" />
        </mxCell>
        <mxCell id="M2tGAzniRJHASpzbKPjf-20" value="&lt;h1 style=&quot;margin-top: 0px;&quot;&gt;sort(arr, 0, 0){&lt;/h1&gt;&lt;p style=&quot;line-height: 50%;&quot;&gt;if( 0 &amp;lt; 0){&lt;/p&gt;&lt;p style=&quot;line-height: 50%;&quot;&gt;&lt;span style=&quot;white-space: pre;&quot;&gt;&#x9;&lt;/span&gt;...&lt;/p&gt;&lt;p style=&quot;line-height: 50%;&quot;&gt;}else return;&lt;/p&gt;" style="text;html=1;whiteSpace=wrap;overflow=hidden;rounded=0;" vertex="1" parent="1">
          <mxGeometry x="1755" y="-840" width="175" height="120" as="geometry" />
        </mxCell>
        <mxCell id="M2tGAzniRJHASpzbKPjf-21" value="3" style="endArrow=classic;html=1;rounded=0;edgeStyle=orthogonalEdgeStyle;entryX=0;entryY=0.5;entryDx=0;entryDy=0;fillColor=#dae8fc;strokeColor=#6c8ebf;strokeWidth=2;fontSize=16;" edge="1" parent="1" target="M2tGAzniRJHASpzbKPjf-19">
          <mxGeometry width="50" height="50" relative="1" as="geometry">
            <mxPoint x="1385" y="-591" as="sourcePoint" />
            <mxPoint x="1694.9999999999995" y="-787" as="targetPoint" />
          </mxGeometry>
        </mxCell>
        <mxCell id="M2tGAzniRJHASpzbKPjf-22" value="4" style="endArrow=classic;html=1;rounded=0;fillColor=#dae8fc;strokeColor=#6c8ebf;strokeWidth=2;fontSize=16;entryX=0;entryY=0.5;entryDx=0;entryDy=0;" edge="1" parent="1" target="M2tGAzniRJHASpzbKPjf-23">
          <mxGeometry width="50" height="50" relative="1" as="geometry">
            <mxPoint x="1395" y="-579" as="sourcePoint" />
            <mxPoint x="1710" y="-580" as="targetPoint" />
          </mxGeometry>
        </mxCell>
        <mxCell id="M2tGAzniRJHASpzbKPjf-23" value="" style="rounded=1;whiteSpace=wrap;html=1;" vertex="1" parent="1">
          <mxGeometry x="1730" y="-642" width="200" height="130" as="geometry" />
        </mxCell>
        <mxCell id="M2tGAzniRJHASpzbKPjf-24" value="&lt;h1 style=&quot;margin-top: 0px;&quot;&gt;sort(arr, 1, 1){&lt;/h1&gt;&lt;p style=&quot;line-height: 50%;&quot;&gt;if( 1&amp;lt; 1){&lt;/p&gt;&lt;p style=&quot;line-height: 50%;&quot;&gt;&lt;span style=&quot;white-space: pre;&quot;&gt;&#x9;&lt;/span&gt;...&lt;/p&gt;&lt;p style=&quot;line-height: 50%;&quot;&gt;}else return;&lt;/p&gt;" style="text;html=1;whiteSpace=wrap;overflow=hidden;rounded=0;" vertex="1" parent="1">
          <mxGeometry x="1760" y="-632" width="170" height="120" as="geometry" />
        </mxCell>
        <mxCell id="M2tGAzniRJHASpzbKPjf-25" value="" style="rounded=1;whiteSpace=wrap;html=1;" vertex="1" parent="1">
          <mxGeometry x="1730" y="-460" width="250" height="190" as="geometry" />
        </mxCell>
        <mxCell id="M2tGAzniRJHASpzbKPjf-26" value="&lt;h1 style=&quot;margin-top: 0px;&quot;&gt;merge(arr, 0, 0, 1){&lt;/h1&gt;&lt;p style=&quot;line-height: 50%;&quot;&gt;int lenghtOfL = 1;&lt;/p&gt;&lt;p style=&quot;line-height: 50%;&quot;&gt;int lengthOfR = 1;&lt;/p&gt;&lt;p style=&quot;line-height: 50%;&quot;&gt;int L = {12};&lt;/p&gt;&lt;p style=&quot;line-height: 50%;&quot;&gt;int R = {11};&lt;/p&gt;&lt;p style=&quot;line-height: 50%;&quot;&gt;&amp;nbsp;// arr = {11,12,13, 5, 6, 7}&lt;/p&gt;" style="text;html=1;whiteSpace=wrap;overflow=hidden;rounded=0;" vertex="1" parent="1">
          <mxGeometry x="1755" y="-450" width="250" height="180" as="geometry" />
        </mxCell>
        <mxCell id="M2tGAzniRJHASpzbKPjf-32" value="" style="rounded=1;whiteSpace=wrap;html=1;" vertex="1" parent="1">
          <mxGeometry x="740" y="-1510" width="280" height="590" as="geometry" />
        </mxCell>
        <mxCell id="M2tGAzniRJHASpzbKPjf-33" value="&lt;h1 style=&quot;margin-top: 0px;&quot;&gt;merge(arr, l, m, r){&lt;/h1&gt;&lt;p style=&quot;line-height: 50%;&quot;&gt;int lengthOfL = m-l+1;&lt;/p&gt;&lt;p style=&quot;line-height: 50%;&quot;&gt;int lengthOfR = r-m;&lt;/p&gt;&lt;p style=&quot;line-height: 50%;&quot;&gt;int L = arr[l ,lengthOfL];&lt;/p&gt;&lt;p style=&quot;line-height: 50%;&quot;&gt;int R =&lt;span style=&quot;background-color: initial;&quot;&gt;arr[m,lengthOfM];&lt;/span&gt;&lt;/p&gt;&lt;p style=&quot;line-height: 50%;&quot;&gt;&amp;nbsp;int i = 0, j = 0;&lt;/p&gt;&lt;p style=&quot;line-height: 50%;&quot;&gt;&amp;nbsp;// Initial index of merged subarray array&lt;/p&gt;&lt;p style=&quot;line-height: 50%;&quot;&gt;&amp;nbsp;int k = l;&lt;/p&gt;&lt;p style=&quot;line-height: 50%;&quot;&gt;&amp;nbsp;while (i &amp;lt; n1 &amp;amp;&amp;amp; j &amp;lt; n2) {&lt;/p&gt;&lt;p style=&quot;line-height: 50%;&quot;&gt;&amp;nbsp; &amp;nbsp; &amp;nbsp; if (L[i] &amp;lt;= R[j]) {&lt;/p&gt;&lt;p style=&quot;line-height: 50%;&quot;&gt;&amp;nbsp; &amp;nbsp; &amp;nbsp; &amp;nbsp; &amp;nbsp; &amp;nbsp;arr[k] = L[i];&lt;/p&gt;&lt;p style=&quot;line-height: 50%;&quot;&gt;&amp;nbsp; &amp;nbsp; &amp;nbsp; &amp;nbsp; &amp;nbsp; &amp;nbsp; i++;&lt;/p&gt;&lt;p style=&quot;line-height: 50%;&quot;&gt;&amp;nbsp; &amp;nbsp; &amp;nbsp; &amp;nbsp;}&lt;span style=&quot;background-color: initial;&quot;&gt;else {&lt;/span&gt;&lt;/p&gt;&lt;p style=&quot;line-height: 50%;&quot;&gt;&amp;nbsp; &amp;nbsp; &amp;nbsp; &amp;nbsp; &amp;nbsp;arr[k] = R[j];&lt;/p&gt;&lt;p style=&quot;line-height: 50%;&quot;&gt;&amp;nbsp; &amp;nbsp; &amp;nbsp; &amp;nbsp; &amp;nbsp;j++;&lt;/p&gt;&lt;p style=&quot;line-height: 50%;&quot;&gt;&amp;nbsp; &amp;nbsp; &amp;nbsp; &amp;nbsp; }&lt;/p&gt;&lt;p style=&quot;line-height: 50%;&quot;&gt;&amp;nbsp; &amp;nbsp; &amp;nbsp; &amp;nbsp; k++;&lt;/p&gt;&lt;p style=&quot;line-height: 50%;&quot;&gt;&amp;nbsp; &amp;nbsp; &amp;nbsp; &amp;nbsp;}&lt;/p&gt;&lt;p style=&quot;line-height: 50%;&quot;&gt;&lt;span style=&quot;background-color: initial;&quot;&gt;&amp;nbsp;// Copy remaining elements of L[] if any&lt;/span&gt;&lt;br&gt;&lt;/p&gt;&lt;p style=&quot;line-height: 50%;&quot;&gt;&amp;nbsp; &amp;nbsp;while (i &amp;lt; n1) {&lt;/p&gt;&lt;p style=&quot;line-height: 50%;&quot;&gt;&amp;nbsp; &amp;nbsp; &amp;nbsp; arr[k] = L[i];&lt;/p&gt;&lt;p style=&quot;line-height: 50%;&quot;&gt;&amp;nbsp; &amp;nbsp; &amp;nbsp; i++;&lt;/p&gt;&lt;p style=&quot;line-height: 50%;&quot;&gt;&amp;nbsp; &amp;nbsp; &amp;nbsp; k++;&lt;/p&gt;&lt;p style=&quot;line-height: 50%;&quot;&gt;&amp;nbsp; &amp;nbsp;}&lt;/p&gt;&lt;p style=&quot;line-height: 50%;&quot;&gt;&lt;span style=&quot;background-color: initial;&quot;&gt;&amp;nbsp; // Copy remaining elements of R[] if any&lt;/span&gt;&lt;br&gt;&lt;/p&gt;&lt;p style=&quot;line-height: 50%;&quot;&gt;&amp;nbsp; &amp;nbsp; while (j &amp;lt; n2) {&lt;/p&gt;&lt;p style=&quot;line-height: 50%;&quot;&gt;&amp;nbsp; &amp;nbsp; &amp;nbsp; &amp;nbsp;arr[k] = R[j];&lt;/p&gt;&lt;p style=&quot;line-height: 50%;&quot;&gt;&amp;nbsp; &amp;nbsp; &amp;nbsp; &amp;nbsp;j++;&lt;/p&gt;&lt;p style=&quot;line-height: 50%;&quot;&gt;&amp;nbsp; &amp;nbsp; &amp;nbsp; &amp;nbsp;k++;&lt;/p&gt;&lt;p style=&quot;line-height: 50%;&quot;&gt;&lt;span style=&quot;background-color: initial;&quot;&gt;&lt;/span&gt;&lt;/p&gt;&lt;p style=&quot;line-height: 50%;&quot;&gt;&amp;nbsp; }&lt;/p&gt;&lt;p style=&quot;line-height: 50%;&quot;&gt;&lt;span style=&quot;background-color: initial;&quot;&gt;&amp;nbsp;&lt;/span&gt;&lt;/p&gt;" style="text;html=1;whiteSpace=wrap;overflow=hidden;rounded=0;" vertex="1" parent="1">
          <mxGeometry x="765" y="-1500" width="250" height="570" as="geometry" />
        </mxCell>
        <mxCell id="M2tGAzniRJHASpzbKPjf-34" value="5" style="endArrow=classic;html=1;rounded=0;fillColor=#dae8fc;strokeColor=#6c8ebf;strokeWidth=2;entryX=0;entryY=0.5;entryDx=0;entryDy=0;fontSize=16;edgeStyle=orthogonalEdgeStyle;" edge="1" parent="1" target="M2tGAzniRJHASpzbKPjf-25">
          <mxGeometry width="50" height="50" relative="1" as="geometry">
            <mxPoint x="1410" y="-554" as="sourcePoint" />
            <mxPoint x="1719.9999999999995" y="-380" as="targetPoint" />
          </mxGeometry>
        </mxCell>
        <mxCell id="M2tGAzniRJHASpzbKPjf-35" value="6" style="endArrow=classic;html=1;rounded=0;edgeStyle=orthogonalEdgeStyle;fillColor=#dae8fc;strokeColor=#6c8ebf;strokeWidth=2;fontSize=16;entryX=0;entryY=0.5;entryDx=0;entryDy=0;" edge="1" parent="1" target="M2tGAzniRJHASpzbKPjf-39">
          <mxGeometry width="50" height="50" relative="1" as="geometry">
            <mxPoint x="980" y="-284" as="sourcePoint" />
            <mxPoint x="1310" y="-285" as="targetPoint" />
          </mxGeometry>
        </mxCell>
        <mxCell id="M2tGAzniRJHASpzbKPjf-39" value="" style="rounded=1;whiteSpace=wrap;html=1;" vertex="1" parent="1">
          <mxGeometry x="1250" y="-350" width="200" height="130" as="geometry" />
        </mxCell>
        <mxCell id="M2tGAzniRJHASpzbKPjf-40" value="&lt;h1 style=&quot;margin-top: 0px;&quot;&gt;sort(arr, 2, 2){&lt;/h1&gt;&lt;p style=&quot;line-height: 50%;&quot;&gt;if( 2 &amp;lt; 2){&lt;/p&gt;&lt;p style=&quot;line-height: 50%;&quot;&gt;&lt;span style=&quot;white-space: pre;&quot;&gt;&#x9;&lt;/span&gt;...&lt;/p&gt;&lt;p style=&quot;line-height: 50%;&quot;&gt;}else return;&lt;/p&gt;" style="text;html=1;whiteSpace=wrap;overflow=hidden;rounded=0;" vertex="1" parent="1">
          <mxGeometry x="1275" y="-340" width="175" height="120" as="geometry" />
        </mxCell>
        <mxCell id="M2tGAzniRJHASpzbKPjf-41" value="7" style="endArrow=classic;html=1;rounded=0;edgeStyle=orthogonalEdgeStyle;fillColor=#dae8fc;strokeColor=#6c8ebf;strokeWidth=2;fontSize=16;" edge="1" parent="1">
          <mxGeometry width="50" height="50" relative="1" as="geometry">
            <mxPoint x="979.5" y="-260" as="sourcePoint" />
            <mxPoint x="1240" y="-111" as="targetPoint" />
            <Array as="points">
              <mxPoint x="1140" y="-259" />
              <mxPoint x="1140" y="-111" />
            </Array>
          </mxGeometry>
        </mxCell>
        <mxCell id="M2tGAzniRJHASpzbKPjf-42" value="" style="rounded=1;whiteSpace=wrap;html=1;" vertex="1" parent="1">
          <mxGeometry x="1250" y="-150" width="250" height="190" as="geometry" />
        </mxCell>
        <mxCell id="M2tGAzniRJHASpzbKPjf-43" value="&lt;h1 style=&quot;margin-top: 0px;&quot;&gt;merge(arr, 0, 1, 2){&lt;/h1&gt;&lt;p style=&quot;line-height: 50%;&quot;&gt;int lenghtOfL = 2;&lt;/p&gt;&lt;p style=&quot;line-height: 50%;&quot;&gt;int lengthOfR = 1;&lt;/p&gt;&lt;p style=&quot;line-height: 50%;&quot;&gt;int L = {11, 12};&lt;/p&gt;&lt;p style=&quot;line-height: 50%;&quot;&gt;int R = {13};&lt;/p&gt;&lt;p style=&quot;line-height: 50%;&quot;&gt;&amp;nbsp;// arr = {11,12,13, 5, 6, 7}&lt;/p&gt;" style="text;html=1;whiteSpace=wrap;overflow=hidden;rounded=0;" vertex="1" parent="1">
          <mxGeometry x="1275" y="-140" width="250" height="180" as="geometry" />
        </mxCell>
        <mxCell id="M2tGAzniRJHASpzbKPjf-44" value="8" style="endArrow=classic;html=1;rounded=0;fillColor=#dae8fc;strokeColor=#6c8ebf;strokeWidth=2;fontSize=16;entryX=0;entryY=0.5;entryDx=0;entryDy=0;" edge="1" parent="1" target="M2tGAzniRJHASpzbKPjf-46">
          <mxGeometry width="50" height="50" relative="1" as="geometry">
            <mxPoint x="520" y="441" as="sourcePoint" />
            <mxPoint x="710" y="560" as="targetPoint" />
          </mxGeometry>
        </mxCell>
        <mxCell id="M2tGAzniRJHASpzbKPjf-46" value="" style="rounded=1;whiteSpace=wrap;html=1;" vertex="1" parent="1">
          <mxGeometry x="795" y="350" width="250" height="190" as="geometry" />
        </mxCell>
        <mxCell id="M2tGAzniRJHASpzbKPjf-47" value="&lt;h1 style=&quot;margin-top: 0px;&quot;&gt;sort(arr, 3, 5){&lt;/h1&gt;&lt;p style=&quot;line-height: 50%;&quot;&gt;if( 3&amp;lt; 5){&lt;/p&gt;&lt;p style=&quot;line-height: 50%;&quot;&gt;&lt;span style=&quot;white-space: pre;&quot;&gt;&#x9;&lt;/span&gt;int m = 3+ ( 5 - 3 ) / 2 = 4&lt;br&gt;&lt;/p&gt;&lt;p style=&quot;line-height: 50%;&quot;&gt;&lt;span style=&quot;white-space: pre;&quot;&gt;&#x9;&lt;/span&gt;sort(arr, 3, 4);&lt;br&gt;&lt;/p&gt;&lt;p style=&quot;line-height: 50%;&quot;&gt;&lt;span style=&quot;white-space: pre;&quot;&gt;&#x9;&lt;/span&gt;sort(arr, 4+1, 5);&lt;br&gt;&lt;/p&gt;&lt;p style=&quot;line-height: 50%;&quot;&gt;&lt;span style=&quot;white-space: pre;&quot;&gt;&#x9;&lt;/span&gt;merge(arr, 3, 4, 5);&lt;br&gt;&lt;/p&gt;&lt;p style=&quot;line-height: 50%;&quot;&gt;&lt;span style=&quot;white-space: pre;&quot;&gt;&#x9;&lt;/span&gt;}&lt;/p&gt;&lt;p style=&quot;line-height: 50%;&quot;&gt;}&lt;/p&gt;" style="text;html=1;whiteSpace=wrap;overflow=hidden;rounded=0;" vertex="1" parent="1">
          <mxGeometry x="820" y="360" width="250" height="180" as="geometry" />
        </mxCell>
        <mxCell id="M2tGAzniRJHASpzbKPjf-50" value="9" style="endArrow=classic;html=1;rounded=0;fillColor=#dae8fc;strokeColor=#6c8ebf;strokeWidth=2;fontSize=16;entryX=0;entryY=0.474;entryDx=0;entryDy=0;entryPerimeter=0;edgeStyle=orthogonalEdgeStyle;" edge="1" parent="1" target="M2tGAzniRJHASpzbKPjf-48">
          <mxGeometry width="50" height="50" relative="1" as="geometry">
            <mxPoint x="960" y="452.25" as="sourcePoint" />
            <mxPoint x="1200" y="440" as="targetPoint" />
          </mxGeometry>
        </mxCell>
        <mxCell id="M2tGAzniRJHASpzbKPjf-51" value="10" style="endArrow=classic;html=1;rounded=0;fillColor=#dae8fc;strokeColor=#6c8ebf;strokeWidth=2;fontSize=16;entryX=0;entryY=0.5;entryDx=0;entryDy=0;edgeStyle=orthogonalEdgeStyle;" edge="1" parent="1" target="M2tGAzniRJHASpzbKPjf-52">
          <mxGeometry width="50" height="50" relative="1" as="geometry">
            <mxPoint x="1410" y="307.25" as="sourcePoint" />
            <mxPoint x="1699.9999999999995" y="190" as="targetPoint" />
          </mxGeometry>
        </mxCell>
        <mxCell id="M2tGAzniRJHASpzbKPjf-52" value="" style="rounded=1;whiteSpace=wrap;html=1;" vertex="1" parent="1">
          <mxGeometry x="1720" y="80" width="200" height="130" as="geometry" />
        </mxCell>
        <mxCell id="M2tGAzniRJHASpzbKPjf-53" value="&lt;h1 style=&quot;margin-top: 0px;&quot;&gt;sort(arr, 3, 3){&lt;/h1&gt;&lt;p style=&quot;line-height: 50%;&quot;&gt;if( 3 &amp;lt; 3){&lt;/p&gt;&lt;p style=&quot;line-height: 50%;&quot;&gt;&lt;span style=&quot;white-space: pre;&quot;&gt;&#x9;&lt;/span&gt;...&lt;/p&gt;&lt;p style=&quot;line-height: 50%;&quot;&gt;}else return;&lt;/p&gt;" style="text;html=1;whiteSpace=wrap;overflow=hidden;rounded=0;" vertex="1" parent="1">
          <mxGeometry x="1745" y="90" width="175" height="120" as="geometry" />
        </mxCell>
        <mxCell id="M2tGAzniRJHASpzbKPjf-54" value="" style="rounded=1;whiteSpace=wrap;html=1;" vertex="1" parent="1">
          <mxGeometry x="1720" y="260" width="200" height="130" as="geometry" />
        </mxCell>
        <mxCell id="M2tGAzniRJHASpzbKPjf-55" value="&lt;h1 style=&quot;margin-top: 0px;&quot;&gt;sort(arr, 4, 4){&lt;/h1&gt;&lt;p style=&quot;line-height: 50%;&quot;&gt;if( 4 &amp;lt; 4){&lt;/p&gt;&lt;p style=&quot;line-height: 50%;&quot;&gt;&lt;span style=&quot;white-space: pre;&quot;&gt;&#x9;&lt;/span&gt;...&lt;/p&gt;&lt;p style=&quot;line-height: 50%;&quot;&gt;}else return;&lt;/p&gt;" style="text;html=1;whiteSpace=wrap;overflow=hidden;rounded=0;" vertex="1" parent="1">
          <mxGeometry x="1745" y="270" width="175" height="120" as="geometry" />
        </mxCell>
        <mxCell id="M2tGAzniRJHASpzbKPjf-57" value="12" style="endArrow=classic;html=1;rounded=0;fillColor=#dae8fc;strokeColor=#6c8ebf;strokeWidth=2;fontSize=16;entryX=0;entryY=0.5;entryDx=0;entryDy=0;edgeStyle=orthogonalEdgeStyle;" edge="1" parent="1" target="M2tGAzniRJHASpzbKPjf-58">
          <mxGeometry width="50" height="50" relative="1" as="geometry">
            <mxPoint x="1410" y="339.96" as="sourcePoint" />
            <mxPoint x="1680" y="539.96" as="targetPoint" />
          </mxGeometry>
        </mxCell>
        <mxCell id="M2tGAzniRJHASpzbKPjf-56" value="11" style="endArrow=classic;html=1;rounded=0;fillColor=#dae8fc;strokeColor=#6c8ebf;strokeWidth=2;fontSize=16;entryX=0;entryY=0.5;entryDx=0;entryDy=0;" edge="1" parent="1" target="M2tGAzniRJHASpzbKPjf-54">
          <mxGeometry width="50" height="50" relative="1" as="geometry">
            <mxPoint x="1390" y="330" as="sourcePoint" />
            <mxPoint x="1770" y="535" as="targetPoint" />
          </mxGeometry>
        </mxCell>
        <mxCell id="M2tGAzniRJHASpzbKPjf-58" value="" style="rounded=1;whiteSpace=wrap;html=1;" vertex="1" parent="1">
          <mxGeometry x="1720" y="440" width="250" height="190" as="geometry" />
        </mxCell>
        <mxCell id="M2tGAzniRJHASpzbKPjf-59" value="&lt;h1 style=&quot;margin-top: 0px;&quot;&gt;merge(arr, 3, 3, 4){&lt;/h1&gt;&lt;p style=&quot;line-height: 50%;&quot;&gt;int lenghtOfL = 1;&lt;/p&gt;&lt;p style=&quot;line-height: 50%;&quot;&gt;int lengthOfR = 1;&lt;/p&gt;&lt;p style=&quot;line-height: 50%;&quot;&gt;int L = {5};&lt;/p&gt;&lt;p style=&quot;line-height: 50%;&quot;&gt;int R = {6};&lt;/p&gt;&lt;p style=&quot;line-height: 50%;&quot;&gt;&amp;nbsp;// arr = {11,12,13, 5, 6, 7}&lt;/p&gt;" style="text;html=1;whiteSpace=wrap;overflow=hidden;rounded=0;" vertex="1" parent="1">
          <mxGeometry x="1745" y="450" width="250" height="180" as="geometry" />
        </mxCell>
        <mxCell id="M2tGAzniRJHASpzbKPjf-60" value="" style="rounded=1;whiteSpace=wrap;html=1;" vertex="1" parent="1">
          <mxGeometry x="1250" y="410" width="200" height="130" as="geometry" />
        </mxCell>
        <mxCell id="M2tGAzniRJHASpzbKPjf-61" value="&lt;h1 style=&quot;margin-top: 0px;&quot;&gt;sort(arr, 5, 5){&lt;/h1&gt;&lt;p style=&quot;line-height: 50%;&quot;&gt;if( 5 &amp;lt; 5){&lt;/p&gt;&lt;p style=&quot;line-height: 50%;&quot;&gt;&lt;span style=&quot;white-space: pre;&quot;&gt;&#x9;&lt;/span&gt;...&lt;/p&gt;&lt;p style=&quot;line-height: 50%;&quot;&gt;}else return;&lt;/p&gt;" style="text;html=1;whiteSpace=wrap;overflow=hidden;rounded=0;" vertex="1" parent="1">
          <mxGeometry x="1275" y="420" width="175" height="120" as="geometry" />
        </mxCell>
        <mxCell id="M2tGAzniRJHASpzbKPjf-62" value="13" style="endArrow=classic;html=1;rounded=0;fillColor=#dae8fc;strokeColor=#6c8ebf;strokeWidth=2;fontSize=16;" edge="1" parent="1" target="M2tGAzniRJHASpzbKPjf-60">
          <mxGeometry width="50" height="50" relative="1" as="geometry">
            <mxPoint x="960" y="470" as="sourcePoint" />
            <mxPoint x="1275" y="645" as="targetPoint" />
          </mxGeometry>
        </mxCell>
        <mxCell id="M2tGAzniRJHASpzbKPjf-63" value="" style="rounded=1;whiteSpace=wrap;html=1;" vertex="1" parent="1">
          <mxGeometry x="1250" y="570" width="250" height="190" as="geometry" />
        </mxCell>
        <mxCell id="M2tGAzniRJHASpzbKPjf-64" value="&lt;h1 style=&quot;margin-top: 0px;&quot;&gt;merge(arr, 3, 4, 5){&lt;/h1&gt;&lt;p style=&quot;line-height: 50%;&quot;&gt;int lenghtOfL = 2;&lt;/p&gt;&lt;p style=&quot;line-height: 50%;&quot;&gt;int lengthOfR = 1;&lt;/p&gt;&lt;p style=&quot;line-height: 50%;&quot;&gt;int L = {5, 6};&lt;/p&gt;&lt;p style=&quot;line-height: 50%;&quot;&gt;int R = {7};&lt;/p&gt;&lt;p style=&quot;line-height: 50%;&quot;&gt;&amp;nbsp;// arr = {11,12,13, 5, 6, 7}&lt;/p&gt;" style="text;html=1;whiteSpace=wrap;overflow=hidden;rounded=0;" vertex="1" parent="1">
          <mxGeometry x="1275" y="580" width="250" height="180" as="geometry" />
        </mxCell>
        <mxCell id="M2tGAzniRJHASpzbKPjf-65" value="14" style="endArrow=classic;html=1;rounded=0;fillColor=#dae8fc;strokeColor=#6c8ebf;strokeWidth=2;fontSize=16;entryX=-0.014;entryY=0.46;entryDx=0;entryDy=0;entryPerimeter=0;edgeStyle=orthogonalEdgeStyle;" edge="1" parent="1" target="M2tGAzniRJHASpzbKPjf-63">
          <mxGeometry width="50" height="50" relative="1" as="geometry">
            <mxPoint x="960" y="490" as="sourcePoint" />
            <mxPoint x="1215" y="865" as="targetPoint" />
            <Array as="points">
              <mxPoint x="960" y="491" />
              <mxPoint x="1100" y="491" />
              <mxPoint x="1100" y="657" />
            </Array>
          </mxGeometry>
        </mxCell>
        <mxCell id="M2tGAzniRJHASpzbKPjf-66" value="" style="rounded=1;whiteSpace=wrap;html=1;" vertex="1" parent="1">
          <mxGeometry x="782.5" y="860" width="250" height="190" as="geometry" />
        </mxCell>
        <mxCell id="M2tGAzniRJHASpzbKPjf-67" value="&lt;h1 style=&quot;margin-top: 0px;&quot;&gt;merge(arr, 0, 2, 5){&lt;/h1&gt;&lt;p style=&quot;line-height: 50%;&quot;&gt;int lenghtOfL = 3;&lt;/p&gt;&lt;p style=&quot;line-height: 50%;&quot;&gt;int lengthOfR = 3;&lt;/p&gt;&lt;p style=&quot;line-height: 50%;&quot;&gt;int L = {11, 12, 13};&lt;/p&gt;&lt;p style=&quot;line-height: 50%;&quot;&gt;int R = {5, 6, 7};&lt;/p&gt;&lt;p style=&quot;line-height: 50%;&quot;&gt;&amp;nbsp;// arr = { 5, 6, 7, 11, 12, 13}&lt;/p&gt;" style="text;html=1;whiteSpace=wrap;overflow=hidden;rounded=0;" vertex="1" parent="1">
          <mxGeometry x="807.5" y="870" width="250" height="180" as="geometry" />
        </mxCell>
        <mxCell id="M2tGAzniRJHASpzbKPjf-68" value="15" style="endArrow=classic;html=1;rounded=0;fillColor=#dae8fc;strokeColor=#6c8ebf;strokeWidth=2;fontSize=16;entryX=0;entryY=0.5;entryDx=0;entryDy=0;edgeStyle=orthogonalEdgeStyle;" edge="1" parent="1" target="M2tGAzniRJHASpzbKPjf-66">
          <mxGeometry width="50" height="50" relative="1" as="geometry">
            <mxPoint x="530" y="462.5" as="sourcePoint" />
            <mxPoint x="785" y="837.5" as="targetPoint" />
          </mxGeometry>
        </mxCell>
        <mxCell id="M2tGAzniRJHASpzbKPjf-72" value="Text" style="text;html=1;align=center;verticalAlign=middle;whiteSpace=wrap;rounded=0;" vertex="1" parent="1">
          <mxGeometry x="1030" y="-270" width="60" height="30" as="geometry" />
        </mxCell>
        <mxCell id="M2tGAzniRJHASpzbKPjf-73" value="&lt;font style=&quot;font-size: 20px;&quot;&gt;&lt;b&gt;First Part : arr[0,2] = {12, 11, 13}&lt;/b&gt;&lt;/font&gt;" style="text;html=1;align=center;verticalAlign=middle;whiteSpace=wrap;rounded=0;" vertex="1" parent="1">
          <mxGeometry x="480" y="-860" width="330" height="30" as="geometry" />
        </mxCell>
      </root>
    </mxGraphModel>
  </diagram>
</mxfile>
